<svg xmlns="http://www.w3.org/2000/svg" width="135" height="40" viewBox="0 0 135 40"><path fill="#A6A6A6" d="M130.197 40H4.73A4.739 4.739 0 0 1 0 35.267V4.727A4.734 4.734 0 0 1 4.73 0h125.467C132.803 0 135 2.12 135 4.726v30.54c0 2.606-2.197 4.734-4.803 4.734z"/><path d="M134.032 35.268a3.83 3.83 0 0 1-3.834 3.83H4.728a3.835 3.835 0 0 1-3.838-3.83V4.725A3.84 3.84 0 0 1 4.73.89h125.467c2.12 0 3.834 1.72 3.834 3.835l.01 30.543z"/><path d="M30.128 19.784c-.03-3.223 2.64-4.79 2.76-4.864-1.51-2.203-3.852-2.504-4.675-2.528-1.967-.207-3.875 1.177-4.877 1.177-1.022 0-2.565-1.16-4.228-1.13-2.14.03-4.142 1.27-5.24 3.19-2.266 3.92-.576 9.69 1.595 12.86 1.086 1.55 2.355 3.28 4.016 3.22 1.62-.07 2.23-1.04 4.19-1.04 1.94 0 2.51 1.03 4.2.99 1.74-.03 2.84-1.56 3.89-3.13 1.25-1.78 1.76-3.53 1.78-3.62-.04-.01-3.39-1.29-3.42-5.15zm-3.2-9.478c.874-1.093 1.472-2.58 1.306-4.09-1.265.057-2.847.876-3.758 1.945-.806.95-1.526 2.49-1.34 3.94 1.42.11 2.88-.71 3.792-1.79zm26.717 21.198h-2.27l-1.245-3.91h-4.324l-1.185 3.91h-2.21l4.29-13.308h2.65l4.31 13.308zm-3.89-5.55L48.63 22.48c-.12-.355-.342-1.19-.67-2.507h-.04c-.132.566-.343 1.402-.633 2.507l-1.105 3.475h3.573zm14.907.634c0 1.632-.44 2.922-1.323 3.87-.79.842-1.78 1.263-2.95 1.263-1.27 0-2.17-.45-2.73-1.36h-.04v5.06H55.5V25.07c0-1.026-.027-2.08-.08-3.16h1.876l.12 1.522h.04c.71-1.15 1.79-1.72 3.237-1.72 1.132 0 2.077.447 2.833 1.34.758.898 1.136 2.076 1.136 3.537zm-2.172.078c0-.934-.21-1.704-.632-2.31-.46-.632-1.08-.948-1.856-.948-.526 0-1.004.176-1.43.523-.43.35-.71.81-.84 1.38-.066.27-.1.48-.1.65v1.6c0 .7.215 1.29.643 1.77s.984.72 1.668.72c.803 0 1.428-.31 1.875-.92.448-.62.672-1.43.672-2.45zm13.21-.078c0 1.632-.442 2.922-1.325 3.87-.79.842-1.77 1.263-2.94 1.263-1.265 0-2.173-.45-2.725-1.36h-.04v5.06h-2.132V25.07c0-1.026-.027-2.08-.08-3.16h1.876l.12 1.522h.04c.71-1.15 1.788-1.72 3.237-1.72 1.14 0 2.08.447 2.84 1.34.76.898 1.14 2.076 1.14 3.537zm-2.173.078c0-.934-.21-1.704-.633-2.31-.46-.632-1.078-.948-1.855-.948-.53 0-1.01.176-1.44.523-.43.35-.71.81-.84 1.38-.07.27-.1.48-.1.65v1.6c0 .7.21 1.29.64 1.77.43.48.98.72 1.67.72.8 0 1.43-.31 1.87-.92.45-.62.67-1.43.67-2.45zm14.513 1.106c0 1.132-.394 2.053-1.183 2.764-.867.777-2.074 1.165-3.625 1.165-1.432 0-2.58-.27-3.45-.82l.495-1.77c.936.57 1.963.85 3.082.85.8 0 1.42-.18 1.87-.54.44-.36.67-.84.67-1.45 0-.54-.19-.99-.56-1.36-.37-.37-.98-.71-1.84-1.03-2.33-.87-3.5-2.14-3.5-3.81 0-1.09.41-1.99 1.22-2.69.81-.69 1.9-1.04 3.26-1.04 1.21 0 2.21.21 3.02.63l-.54 1.74c-.75-.41-1.6-.61-2.55-.61-.75 0-1.34.18-1.76.55-.36.33-.54.73-.54 1.21 0 .53.2.96.61 1.31.35.32 1 .66 1.94 1.03 1.14.46 1.98 1 2.53 1.62.54.62.81 1.39.81 2.31zm7.048-4.264h-2.35v4.66c0 1.184.414 1.776 1.244 1.776.38 0 .697-.033.947-.1l.05 1.62c-.42.157-.98.236-1.66.236-.85 0-1.5-.257-1.98-.77-.48-.514-.71-1.376-.71-2.587v-4.837h-1.4v-1.6h1.4V20.15l2.09-.633v2.39h2.35v1.6zm10.602 3.12c0 1.474-.42 2.685-1.263 3.632-.883.975-2.055 1.46-3.516 1.46-1.4 0-2.52-.466-3.36-1.4s-1.25-2.113-1.25-3.534c0-1.487.43-2.705 1.3-3.652.86-.948 2.03-1.422 3.49-1.422 1.41 0 2.54.467 3.4 1.402.82.907 1.23 2.078 1.23 3.513zm-2.21.07c0-.887-.19-1.646-.573-2.28-.447-.766-1.086-1.15-1.914-1.15-.857 0-1.508.385-1.955 1.15-.383.634-.572 1.405-.572 2.317 0 .885.19 1.644.572 2.276.46.77 1.105 1.15 1.936 1.15.814 0 1.453-.39 1.914-1.17.393-.64.59-1.41.59-2.29zm9.14-2.915c-.21-.04-.435-.06-.67-.06-.75 0-1.33.284-1.74.85-.354.5-.532 1.133-.532 1.896v5.03h-2.13l.02-6.58c0-1.11-.028-2.12-.08-3.02h1.856l.078 1.83h.06c.224-.63.58-1.14 1.065-1.52.475-.35.988-.52 1.54-.52.198 0 .376.01.534.04v2.03zm9.536 2.47c0 .38-.025.703-.078.966h-6.396c.025.94.334 1.67.928 2.17.54.44 1.236.67 2.092.67.947 0 1.81-.15 2.588-.46l.334 1.48c-.908.39-1.98.59-3.217.59-1.488 0-2.656-.44-3.506-1.32-.84-.88-1.27-2.05-1.27-3.53 0-1.45.4-2.65 1.19-3.62.83-1.03 1.95-1.54 3.36-1.54 1.39 0 2.43.51 3.14 1.54.57.81.85 1.82.85 3.02zm-2.033-.554c.014-.64-.125-1.18-.414-1.64-.37-.6-.94-.89-1.7-.89-.7 0-1.27.29-1.7.87-.36.46-.57 1.01-.63 1.65h4.44zM49.05 10.01c0 1.176-.353 2.062-1.058 2.657-.653.55-1.58.824-2.783.824-.6 0-1.11-.02-1.54-.07V6.99c.55-.09 1.15-.138 1.8-.138 1.14 0 2.01.25 2.59.747.65.56.98 1.36.98 2.41zm-1.105.028c0-.763-.202-1.348-.606-1.756-.41-.407-1-.61-1.78-.61-.33 0-.61.02-.85.067v4.88c.13.02.36.03.71.03.8 0 1.42-.23 1.85-.67s.65-1.1.65-1.95zm6.965 1c0 .724-.208 1.32-.622 1.784-.434.48-1.01.718-1.727.718-.69 0-1.24-.23-1.65-.69-.41-.458-.61-1.037-.61-1.735 0-.73.21-1.33.64-1.794s1-.69 1.71-.69c.69 0 1.25.23 1.67.69.4.45.6 1.03.6 1.73zm-1.088.033c0-.43-.094-.8-.28-1.11-.22-.37-.534-.56-.94-.56-.422 0-.742.19-.962.57-.188.31-.28.69-.28 1.14 0 .44.093.81.28 1.12.227.38.543.57.95.57.4 0 .715-.19.94-.57.195-.31.292-.69.292-1.13zm8.943-2.35l-1.475 4.72h-.96l-.61-2.04c-.156-.51-.282-1.02-.38-1.52h-.02c-.09.52-.216 1.03-.378 1.53l-.65 2.05h-.97l-1.387-4.72h1.077l.533 2.24c.13.53.235 1.04.32 1.52h.02c.077-.39.206-.89.388-1.5l.67-2.25h.853l.64 2.21c.156.54.282 1.05.38 1.55h.028c.07-.48.178-1 .32-1.55l.572-2.2h1.03zm5.433 4.72H67.15v-2.7c0-.83-.316-1.25-.95-1.25a.95.95 0 0 0-.757.35c-.193.23-.29.5-.29.81v2.8h-1.05v-3.37c0-.41-.012-.86-.037-1.35h.92l.05.74h.03c.12-.23.303-.42.542-.57.284-.17.602-.26.95-.26.44 0 .806.15 1.097.43.362.35.543.87.543 1.56v2.83zm2.89 0H70.04V6.56h1.048v6.877zm6.17-2.39c0 .73-.207 1.32-.62 1.79-.435.48-1.01.72-1.728.72-.693 0-1.244-.23-1.654-.69-.41-.45-.615-1.03-.615-1.73 0-.73.22-1.33.64-1.79s1-.7 1.71-.7c.7 0 1.25.23 1.67.69.4.45.6 1.02.6 1.73zm-1.088.04c0-.43-.094-.8-.28-1.11-.22-.37-.534-.56-.94-.56-.422 0-.742.19-.96.57-.19.31-.282.69-.282 1.14 0 .44.094.81.28 1.12.228.38.544.57.952.57.4 0 .713-.19.94-.57.194-.32.29-.69.29-1.13zm6.16 2.37h-.94l-.08-.54h-.028c-.322.43-.78.65-1.377.65-.445 0-.805-.14-1.076-.43-.25-.26-.37-.58-.37-.96 0-.57.24-1.01.72-1.32.48-.3 1.16-.45 2.03-.44v-.09c0-.62-.33-.93-.98-.93-.47 0-.88.12-1.23.35l-.22-.69c.44-.27.98-.4 1.61-.4 1.23 0 1.85.65 1.85 1.95v1.74c0 .47.02.85.07 1.12zm-1.088-1.62v-.73c-1.156-.02-1.734.3-1.734.95 0 .25.066.43.2.55.136.12.308.19.513.19.23 0 .45-.07.65-.22.2-.14.32-.33.37-.56.01-.05.02-.11.02-.18zm7.043 1.62h-.93l-.05-.75h-.028c-.297.58-.803.86-1.514.86-.568 0-1.04-.22-1.416-.67s-.562-1.02-.562-1.73c0-.76.203-1.38.61-1.85.396-.44.88-.66 1.456-.66.64 0 1.08.22 1.33.64h.02V6.56h1.05v5.608c0 .46.01.882.04 1.27zm-1.085-2v-.78a1.185 1.185 0 0 0-.41-.96c-.194-.17-.43-.25-.7-.25-.39 0-.697.15-.922.46-.223.31-.336.71-.336 1.19 0 .47.107.85.322 1.14.227.31.533.47.916.47.344 0 .62-.13.828-.39.202-.24.3-.52.3-.86zm10.048-.41c0 .73-.207 1.32-.62 1.79-.435.48-1.01.72-1.728.72-.69 0-1.242-.23-1.654-.69-.41-.45-.615-1.03-.615-1.73 0-.73.22-1.33.64-1.79s1-.69 1.72-.69c.69 0 1.25.23 1.67.69.4.45.6 1.02.6 1.73zm-1.086.04c0-.43-.094-.8-.28-1.11-.222-.37-.534-.56-.942-.56-.42 0-.74.19-.96.56-.19.31-.282.69-.282 1.14 0 .44.094.81.28 1.12.228.38.544.57.952.57.4 0 .715-.19.94-.57.194-.31.292-.69.292-1.13zm6.72 2.37h-1.046v-2.7c0-.83-.316-1.25-.95-1.25-.312 0-.563.12-.757.35s-.3.5-.3.81v2.8h-1.05V10.1c0-.417-.01-.866-.04-1.35h.92l.05.735h.03c.12-.23.3-.416.54-.57.28-.173.6-.262.95-.262.44 0 .8.145 1.1.43.36.35.54.87.54 1.57v2.82zm7.054-3.93h-1.154v2.29c0 .59.205.88.61.88.19 0 .345-.01.468-.05l.027.8c-.207.07-.48.11-.814.11-.414 0-.736-.13-.97-.38-.233-.25-.35-.68-.35-1.27v-2.4h-.688v-.79h.69v-.86l1.026-.31v1.17h1.16v.79zm5.548 3.93h-1.05v-2.68c0-.84-.315-1.27-.948-1.27-.486 0-.818.25-1 .74-.03.1-.05.23-.05.38v2.84h-1.046v-6.9h1.047V9.4h.02c.33-.517.803-.775 1.416-.775.434 0 .793.142 1.078.427.36.35.54.88.54 1.58v2.8zm5.723-2.58c0 .19-.014.35-.04.48h-3.142c.014.47.164.82.455 1.07.266.22.61.33 1.03.33.464 0 .888-.07 1.27-.22l.164.73c-.447.2-.973.29-1.582.29-.73 0-1.305-.21-1.72-.64-.42-.43-.626-1.01-.626-1.73 0-.71.193-1.3.582-1.77.406-.5.955-.75 1.648-.75.678 0 1.193.26 1.54.76.282.4.42.9.42 1.49zm-1-.27c.008-.31-.06-.58-.203-.8-.182-.29-.46-.43-.834-.43-.342 0-.62.15-.834.43-.174.23-.277.5-.31.82h2.18z" fill="#FFF"/></svg>